<svg width="140" height="141" viewBox="0 0 140 141" fill="none" xmlns="http://www.w3.org/2000/svg">
<g id="QR Code">
<g clip-path="url(#clip0_1115_1217)">
<path id="Vector" d="M140 0.170044H0V140.17H140V0.170044Z" fill="white"/>
<g id="Vector_2">
<path d="M14.5828 8.92017H8.74951V14.7535H14.5828V8.92017Z" fill="#222222"/>
<path d="M20.4162 8.92017H14.5828V14.7535H20.4162V8.92017Z" fill="#222222"/>
<path d="M26.2495 8.92017H20.4162V14.7535H26.2495V8.92017Z" fill="#222222"/>
<path d="M32.0828 8.92017H26.2495V14.7535H32.0828V8.92017Z" fill="#222222"/>
<path d="M37.9162 8.92017H32.0828V14.7535H37.9162V8.92017Z" fill="#222222"/>
<path d="M43.7495 8.92017H37.9162V14.7535H43.7495V8.92017Z" fill="#222222"/>
<path d="M49.5828 8.92017H43.7495V14.7535H49.5828V8.92017Z" fill="#222222"/>
<path d="M61.2495 8.92017H55.4162V14.7535H61.2495V8.92017Z" fill="#222222"/>
<path d="M78.7495 8.92017H72.9162V14.7535H78.7495V8.92017Z" fill="#222222"/>
<path d="M84.5828 8.92017H78.7495V14.7535H84.5828V8.92017Z" fill="#222222"/>
<path d="M96.2495 8.92017H90.4162V14.7535H96.2495V8.92017Z" fill="#222222"/>
<path d="M102.083 8.92017H96.2495V14.7535H102.083V8.92017Z" fill="#222222"/>
<path d="M107.916 8.92017H102.083V14.7535H107.916V8.92017Z" fill="#222222"/>
<path d="M113.75 8.92017H107.916V14.7535H113.75V8.92017Z" fill="#222222"/>
<path d="M119.583 8.92017H113.75V14.7535H119.583V8.92017Z" fill="#222222"/>
<path d="M125.416 8.92017H119.583V14.7535H125.416V8.92017Z" fill="#222222"/>
<path d="M131.25 8.92017H125.416V14.7535H131.25V8.92017Z" fill="#222222"/>
<path d="M14.5828 14.7535H8.74951V20.5868H14.5828V14.7535Z" fill="#222222"/>
<path d="M49.5828 14.7535H43.7495V20.5868H49.5828V14.7535Z" fill="#222222"/>
<path d="M67.0828 14.7535H61.2495L61.2495 20.5868H67.0828V14.7535Z" fill="#222222"/>
<path d="M78.7495 14.7535H72.9162V20.5868H78.7495V14.7535Z" fill="#222222"/>
<path d="M84.5828 14.7535H78.7495V20.5868H84.5828V14.7535Z" fill="#222222"/>
<path d="M96.2495 14.7535H90.4162V20.5868H96.2495V14.7535Z" fill="#222222"/>
<path d="M131.25 14.7535H125.416V20.5868H131.25V14.7535Z" fill="#222222"/>
<path d="M14.5828 20.5868H8.74951V26.4202H14.5828V20.5868Z" fill="#222222"/>
<path d="M26.2495 20.5868H20.4162V26.4202H26.2495V20.5868Z" fill="#222222"/>
<path d="M32.0828 20.5868H26.2495V26.4202H32.0828V20.5868Z" fill="#222222"/>
<path d="M37.9162 20.5868H32.0828V26.4202H37.9162V20.5868Z" fill="#222222"/>
<path d="M49.5828 20.5868H43.7495V26.4202H49.5828V20.5868Z" fill="#222222"/>
<path d="M67.0828 20.5868H61.2495V26.4202H67.0828V20.5868Z" fill="#222222"/>
<path d="M78.7495 20.5868H72.9162V26.4202H78.7495V20.5868Z" fill="#222222"/>
<path d="M96.2495 20.5868H90.4162V26.4202H96.2495V20.5868Z" fill="#222222"/>
<path d="M107.916 20.5868H102.083V26.4202H107.916V20.5868Z" fill="#222222"/>
<path d="M113.75 20.5868H107.916V26.4202H113.75V20.5868Z" fill="#222222"/>
<path d="M119.583 20.5868H113.75V26.4202H119.583V20.5868Z" fill="#222222"/>
<path d="M131.25 20.5868H125.416V26.4202H131.25V20.5868Z" fill="#222222"/>
<path d="M14.5828 26.4202H8.74951V32.2535H14.5828V26.4202Z" fill="#222222"/>
<path d="M26.2495 26.4202H20.4162V32.2535H26.2495V26.4202Z" fill="#222222"/>
<path d="M32.0828 26.4202H26.2495V32.2535H32.0828V26.4202Z" fill="#222222"/>
<path d="M37.9162 26.4202H32.0828V32.2535H37.9162V26.4202Z" fill="#222222"/>
<path d="M49.5828 26.4202H43.7495V32.2535H49.5828V26.4202Z" fill="#222222"/>
<path d="M67.0828 26.4202H61.2495V32.2535H67.0828V26.4202Z" fill="#222222"/>
<path d="M96.2495 26.4202H90.4162V32.2535H96.2495V26.4202Z" fill="#222222"/>
<path d="M107.916 26.4202H102.083V32.2535H107.916V26.4202Z" fill="#222222"/>
<path d="M113.75 26.4202H107.916V32.2535H113.75V26.4202Z" fill="#222222"/>
<path d="M119.583 26.4202H113.75V32.2535H119.583V26.4202Z" fill="#222222"/>
<path d="M131.25 26.4202H125.416V32.2535H131.25V26.4202Z" fill="#222222"/>
<path d="M14.5828 32.2535H8.74951V38.0868H14.5828V32.2535Z" fill="#222222"/>
<path d="M26.2495 32.2535H20.4162V38.0868H26.2495V32.2535Z" fill="#222222"/>
<path d="M32.0828 32.2535H26.2495V38.0868H32.0828V32.2535Z" fill="#222222"/>
<path d="M37.9162 32.2535H32.0828V38.0868H37.9162V32.2535Z" fill="#222222"/>
<path d="M49.5828 32.2535H43.7495V38.0868H49.5828V32.2535Z" fill="#222222"/>
<path d="M61.2495 32.2535H55.4162V38.0868H61.2495L61.2495 32.2535Z" fill="#222222"/>
<path d="M67.0828 32.2535H61.2495L61.2495 38.0868H67.0828V32.2535Z" fill="#222222"/>
<path d="M78.7495 32.2535H72.9162V38.0868H78.7495V32.2535Z" fill="#222222"/>
<path d="M84.5828 32.2535H78.7495V38.0868H84.5828V32.2535Z" fill="#222222"/>
<path d="M96.2495 32.2535H90.4162V38.0868H96.2495V32.2535Z" fill="#222222"/>
<path d="M107.916 32.2535H102.083V38.0868H107.916V32.2535Z" fill="#222222"/>
<path d="M113.75 32.2535H107.916V38.0868H113.75V32.2535Z" fill="#222222"/>
<path d="M119.583 32.2535H113.75V38.0868H119.583V32.2535Z" fill="#222222"/>
<path d="M131.25 32.2535H125.416V38.0868H131.25V32.2535Z" fill="#222222"/>
<path d="M14.5828 38.0868H8.74951V43.9202H14.5828V38.0868Z" fill="#222222"/>
<path d="M49.5828 38.0868H43.7495V43.9202H49.5828V38.0868Z" fill="#222222"/>
<path d="M72.9162 38.0868H67.0828L67.0828 43.9202H72.9162L72.9162 38.0868Z" fill="#222222"/>
<path d="M78.7495 38.0868H72.9162L72.9162 43.9202H78.7495V38.0868Z" fill="#222222"/>
<path d="M96.2495 38.0868H90.4162V43.9202H96.2495V38.0868Z" fill="#222222"/>
<path d="M131.25 38.0868H125.416V43.9202H131.25V38.0868Z" fill="#222222"/>
<path d="M14.5828 43.9202H8.74951V49.7535H14.5828V43.9202Z" fill="#222222"/>
<path d="M20.4162 43.9202H14.5828V49.7535H20.4162V43.9202Z" fill="#222222"/>
<path d="M26.2495 43.9202H20.4162V49.7535H26.2495V43.9202Z" fill="#222222"/>
<path d="M32.0828 43.9202H26.2495V49.7535H32.0828V43.9202Z" fill="#222222"/>
<path d="M37.9162 43.9202H32.0828V49.7535H37.9162V43.9202Z" fill="#222222"/>
<path d="M43.7495 43.9202H37.9162V49.7535H43.7495V43.9202Z" fill="#222222"/>
<path d="M49.5828 43.9202H43.7495V49.7535H49.5828V43.9202Z" fill="#222222"/>
<path d="M61.2495 43.9202H55.4162V49.7535H61.2495V43.9202Z" fill="#222222"/>
<path d="M72.9162 43.9202H67.0828V49.7535H72.9162V43.9202Z" fill="#222222"/>
<path d="M84.5828 43.9202H78.7495V49.7535H84.5828V43.9202Z" fill="#222222"/>
<path d="M96.2495 43.9202H90.4162V49.7535H96.2495V43.9202Z" fill="#222222"/>
<path d="M102.083 43.9202H96.2495V49.7535H102.083V43.9202Z" fill="#222222"/>
<path d="M107.916 43.9202H102.083V49.7535H107.916V43.9202Z" fill="#222222"/>
<path d="M113.75 43.9202H107.916V49.7535H113.75V43.9202Z" fill="#222222"/>
<path d="M119.583 43.9202H113.75V49.7535H119.583V43.9202Z" fill="#222222"/>
<path d="M125.416 43.9202H119.583V49.7535H125.416V43.9202Z" fill="#222222"/>
<path d="M131.25 43.9202H125.416V49.7535H131.25V43.9202Z" fill="#222222"/>
<path d="M61.2495 49.7535H55.4162V55.5868H61.2495V49.7535Z" fill="#222222"/>
<path d="M67.0828 49.7535H61.2495V55.5868H67.0828L67.0828 49.7535Z" fill="#222222"/>
<path d="M84.5828 49.7535H78.7495V55.5868H84.5828V49.7535Z" fill="#222222"/>
<path d="M14.5828 55.5868H8.74951V61.4202H14.5828V55.5868Z" fill="#222222"/>
<path d="M32.0828 55.5868H26.2495V61.4202H32.0828V55.5868Z" fill="#222222"/>
<path d="M37.9162 55.5868H32.0828V61.4202H37.9162V55.5868Z" fill="#222222"/>
<path d="M43.7495 55.5868H37.9162V61.4202H43.7495V55.5868Z" fill="#222222"/>
<path d="M49.5828 55.5868H43.7495V61.4202H49.5828V55.5868Z" fill="#222222"/>
<path d="M55.4162 55.5868L49.5828 55.5868V61.4202H55.4162L55.4162 55.5868Z" fill="#222222"/>
<path d="M61.2495 55.5868H55.4162L55.4162 61.4202H61.2495V55.5868Z" fill="#222222"/>
<path d="M78.7495 55.5868L72.9162 55.5868V61.4202H78.7495V55.5868Z" fill="#222222"/>
<path d="M90.4162 55.5868L84.5828 55.5868V61.4202H90.4162V55.5868Z" fill="#222222"/>
<path d="M96.2495 55.5868H90.4162V61.4202H96.2495V55.5868Z" fill="#222222"/>
<path d="M107.916 55.5868H102.083V61.4202H107.916V55.5868Z" fill="#222222"/>
<path d="M131.25 55.5868H125.416V61.4202H131.25V55.5868Z" fill="#222222"/>
<path d="M14.5828 61.4202H8.74951V67.2535H14.5828V61.4202Z" fill="#222222"/>
<path d="M20.4162 61.4202L14.5828 61.4202V67.2535H20.4162V61.4202Z" fill="#222222"/>
<path d="M72.9162 61.4202L67.0828 61.4202V67.2535H72.9162L72.9162 61.4202Z" fill="#222222"/>
<path d="M90.4162 61.4202H84.5828V67.2535H90.4162V61.4202Z" fill="#222222"/>
<path d="M96.2495 61.4202H90.4162V67.2535H96.2495V61.4202Z" fill="#222222"/>
<path d="M102.083 61.4202H96.2495V67.2535H102.083V61.4202Z" fill="#222222"/>
<path d="M107.916 61.4202H102.083V67.2535H107.916V61.4202Z" fill="#222222"/>
<path d="M113.75 61.4202L107.916 61.4202V67.2535H113.75V61.4202Z" fill="#222222"/>
<path d="M119.583 61.4202H113.75V67.2535H119.583V61.4202Z" fill="#222222"/>
<path d="M125.416 61.4202L119.583 61.4202V67.2535H125.416V61.4202Z" fill="#222222"/>
<path d="M131.25 61.4202H125.416V67.2535H131.25V61.4202Z" fill="#222222"/>
<path d="M20.4162 67.2535H14.5828V73.0868H20.4162V67.2535Z" fill="#222222"/>
<path d="M32.0828 67.2535H26.2495V73.0868H32.0828V67.2535Z" fill="#222222"/>
<path d="M49.5828 67.2535H43.7495V73.0868H49.5828V67.2535Z" fill="#222222"/>
<path d="M61.2495 67.2535H55.4162V73.0868H61.2495V67.2535Z" fill="#222222"/>
<path d="M67.0828 67.2535L61.2495 67.2535V73.0868H67.0828L67.0828 67.2535Z" fill="#222222"/>
<path d="M78.7495 67.2535L72.9162 67.2535L72.9162 73.0868H78.7495V67.2535Z" fill="#222222"/>
<path d="M84.5828 67.2535L78.7495 67.2535V73.0868H84.5828V67.2535Z" fill="#222222"/>
<path d="M90.4162 67.2535H84.5828V73.0868H90.4162V67.2535Z" fill="#222222"/>
<path d="M107.916 67.2535H102.083V73.0868H107.916V67.2535Z" fill="#222222"/>
<path d="M113.75 67.2535H107.916V73.0868H113.75V67.2535Z" fill="#222222"/>
<path d="M125.416 67.2535H119.583V73.0868H125.416V67.2535Z" fill="#222222"/>
<path d="M20.4162 73.0868H14.5828V78.9202H20.4162V73.0868Z" fill="#222222"/>
<path d="M32.0828 73.0868H26.2495V78.9202H32.0828V73.0868Z" fill="#222222"/>
<path d="M37.9162 73.0868L32.0828 73.0868V78.9202H37.9162V73.0868Z" fill="#222222"/>
<path d="M78.7495 73.0868H72.9162V78.9202H78.7495V73.0868Z" fill="#222222"/>
<path d="M84.5828 73.0868H78.7495V78.9202H84.5828V73.0868Z" fill="#222222"/>
<path d="M90.4162 73.0868H84.5828V78.9202H90.4162V73.0868Z" fill="#222222"/>
<path d="M96.2495 73.0868L90.4162 73.0868V78.9202H96.2495V73.0868Z" fill="#222222"/>
<path d="M125.416 73.0868H119.583V78.9202H125.416V73.0868Z" fill="#222222"/>
<path d="M131.25 73.0868L125.416 73.0868V78.9202H131.25V73.0868Z" fill="#222222"/>
<path d="M32.0828 78.9202H26.2495V84.7535H32.0828V78.9202Z" fill="#222222"/>
<path d="M37.9162 78.9202H32.0828V84.7535H37.9162V78.9202Z" fill="#222222"/>
<path d="M43.7495 78.9202H37.9162V84.7535H43.7495V78.9202Z" fill="#222222"/>
<path d="M49.5828 78.9202H43.7495V84.7535H49.5828V78.9202Z" fill="#222222"/>
<path d="M61.2495 78.9202H55.4162V84.7535H61.2495V78.9202Z" fill="#222222"/>
<path d="M67.0828 78.9202H61.2495V84.7535H67.0828V78.9202Z" fill="#222222"/>
<path d="M72.9162 78.9202H67.0828V84.7535H72.9162L72.9162 78.9202Z" fill="#222222"/>
<path d="M78.7495 78.9202H72.9162L72.9162 84.7535H78.7495V78.9202Z" fill="#222222"/>
<path d="M90.4162 78.9202H84.5828V84.7535H90.4162V78.9202Z" fill="#222222"/>
<path d="M107.916 78.9202H102.083V84.7535H107.916V78.9202Z" fill="#222222"/>
<path d="M113.75 78.9202H107.916V84.7535H113.75V78.9202Z" fill="#222222"/>
<path d="M119.583 78.9202H113.75V84.7535H119.583V78.9202Z" fill="#222222"/>
<path d="M125.416 78.9202H119.583V84.7535H125.416V78.9202Z" fill="#222222"/>
<path d="M61.2495 84.7535H55.4162V90.5868H61.2495V84.7535Z" fill="#222222"/>
<path d="M67.0828 84.7535H61.2495V90.5868H67.0828V84.7535Z" fill="#222222"/>
<path d="M72.9162 84.7535H67.0828V90.5868H72.9162V84.7535Z" fill="#222222"/>
<path d="M78.7495 84.7535H72.9162V90.5868H78.7495V84.7535Z" fill="#222222"/>
<path d="M84.5828 84.7535H78.7495V90.5868H84.5828V84.7535Z" fill="#222222"/>
<path d="M96.2495 84.7535H90.4162V90.5868H96.2495V84.7535Z" fill="#222222"/>
<path d="M102.083 84.7535H96.2495V90.5868H102.083V84.7535Z" fill="#222222"/>
<path d="M107.916 84.7535H102.083V90.5868H107.916V84.7535Z" fill="#222222"/>
<path d="M119.583 84.7535H113.75V90.5868H119.583V84.7535Z" fill="#222222"/>
<path d="M131.25 84.7535H125.416V90.5868H131.25V84.7535Z" fill="#222222"/>
<path d="M14.5828 90.5868H8.74951V96.4202H14.5828V90.5868Z" fill="#222222"/>
<path d="M20.4162 90.5868H14.5828V96.4202H20.4162V90.5868Z" fill="#222222"/>
<path d="M26.2495 90.5868H20.4162V96.4202H26.2495V90.5868Z" fill="#222222"/>
<path d="M32.0828 90.5868H26.2495V96.4202H32.0828V90.5868Z" fill="#222222"/>
<path d="M37.9162 90.5868H32.0828V96.4202H37.9162V90.5868Z" fill="#222222"/>
<path d="M43.7495 90.5868H37.9162V96.4202H43.7495V90.5868Z" fill="#222222"/>
<path d="M49.5828 90.5868H43.7495V96.4202H49.5828V90.5868Z" fill="#222222"/>
<path d="M61.2495 90.5868H55.4162V96.4202H61.2495V90.5868Z" fill="#222222"/>
<path d="M67.0828 90.5868H61.2495V96.4202H67.0828V90.5868Z" fill="#222222"/>
<path d="M72.9162 90.5868H67.0828V96.4202H72.9162V90.5868Z" fill="#222222"/>
<path d="M96.2495 90.5868H90.4162V96.4202H96.2495V90.5868Z" fill="#222222"/>
<path d="M131.25 90.5868H125.416V96.4202H131.25V90.5868Z" fill="#222222"/>
<path d="M14.5828 96.4202H8.74951V102.253H14.5828V96.4202Z" fill="#222222"/>
<path d="M49.5828 96.4202H43.7495V102.253H49.5828V96.4202Z" fill="#222222"/>
<path d="M61.2495 96.4202H55.4162V102.253H61.2495V96.4202Z" fill="#222222"/>
<path d="M78.7495 96.4202H72.9162L72.9162 102.253H78.7495V96.4202Z" fill="#222222"/>
<path d="M84.5828 96.4202H78.7495V102.253H84.5828V96.4202Z" fill="#222222"/>
<path d="M96.2495 96.4202H90.4162V102.253H96.2495V96.4202Z" fill="#222222"/>
<path d="M107.916 96.4202H102.083V102.253H107.916V96.4202Z" fill="#222222"/>
<path d="M125.416 96.4202H119.583V102.253H125.416V96.4202Z" fill="#222222"/>
<path d="M131.25 96.4202H125.416V102.253H131.25V96.4202Z" fill="#222222"/>
<path d="M14.5828 102.253H8.74951V108.087H14.5828V102.253Z" fill="#222222"/>
<path d="M26.2495 102.253H20.4162V108.087H26.2495V102.253Z" fill="#222222"/>
<path d="M32.0828 102.253H26.2495V108.087H32.0828V102.253Z" fill="#222222"/>
<path d="M37.9162 102.253H32.0828V108.087H37.9162V102.253Z" fill="#222222"/>
<path d="M49.5828 102.253H43.7495V108.087H49.5828V102.253Z" fill="#222222"/>
<path d="M61.2495 102.253H55.4162V108.087H61.2495V102.253Z" fill="#222222"/>
<path d="M67.0828 102.253H61.2495V108.087H67.0828V102.253Z" fill="#222222"/>
<path d="M72.9162 102.253H67.0828V108.087H72.9162L72.9162 102.253Z" fill="#222222"/>
<path d="M84.5828 102.253H78.7495V108.087H84.5828V102.253Z" fill="#222222"/>
<path d="M90.4162 102.253H84.5828V108.087H90.4162V102.253Z" fill="#222222"/>
<path d="M96.2495 102.253H90.4162V108.087H96.2495V102.253Z" fill="#222222"/>
<path d="M102.083 102.253H96.2495V108.087H102.083V102.253Z" fill="#222222"/>
<path d="M113.75 102.253H107.916V108.087H113.75V102.253Z" fill="#222222"/>
<path d="M119.583 102.253H113.75V108.087H119.583V102.253Z" fill="#222222"/>
<path d="M125.416 102.253H119.583V108.087H125.416V102.253Z" fill="#222222"/>
<path d="M131.25 102.253H125.416V108.087H131.25V102.253Z" fill="#222222"/>
<path d="M14.5828 108.087H8.74951V113.92H14.5828V108.087Z" fill="#222222"/>
<path d="M26.2495 108.087H20.4162V113.92H26.2495V108.087Z" fill="#222222"/>
<path d="M32.0828 108.087H26.2495V113.92H32.0828V108.087Z" fill="#222222"/>
<path d="M37.9162 108.087H32.0828V113.92H37.9162V108.087Z" fill="#222222"/>
<path d="M49.5828 108.087H43.7495V113.92H49.5828V108.087Z" fill="#222222"/>
<path d="M61.2495 108.087H55.4162V113.92H61.2495V108.087Z" fill="#222222"/>
<path d="M67.0828 108.087H61.2495V113.92H67.0828V108.087Z" fill="#222222"/>
<path d="M90.4162 108.087H84.5828V113.92H90.4162V108.087Z" fill="#222222"/>
<path d="M113.75 108.087H107.916V113.92H113.75V108.087Z" fill="#222222"/>
<path d="M14.5828 113.92H8.74951V119.753H14.5828V113.92Z" fill="#222222"/>
<path d="M26.2495 113.92H20.4162V119.753H26.2495V113.92Z" fill="#222222"/>
<path d="M32.0828 113.92H26.2495V119.753H32.0828V113.92Z" fill="#222222"/>
<path d="M37.9162 113.92H32.0828V119.753H37.9162V113.92Z" fill="#222222"/>
<path d="M49.5828 113.92H43.7495V119.753H49.5828V113.92Z" fill="#222222"/>
<path d="M72.9162 113.92H67.0828L67.0828 119.753H72.9162V113.92Z" fill="#222222"/>
<path d="M96.2495 113.92H90.4162V119.753H96.2495V113.92Z" fill="#222222"/>
<path d="M113.75 113.92H107.916V119.753H113.75V113.92Z" fill="#222222"/>
<path d="M119.583 113.92H113.75V119.753H119.583V113.92Z" fill="#222222"/>
<path d="M14.5828 119.753H8.74951V125.587H14.5828V119.753Z" fill="#222222"/>
<path d="M49.5828 119.753H43.7495V125.587H49.5828V119.753Z" fill="#222222"/>
<path d="M67.0828 119.753H61.2495V125.587H67.0828L67.0828 119.753Z" fill="#222222"/>
<path d="M72.9162 119.753H67.0828L67.0828 125.587H72.9162V119.753Z" fill="#222222"/>
<path d="M78.7495 119.753H72.9162V125.587H78.7495V119.753Z" fill="#222222"/>
<path d="M90.4162 119.753H84.5828V125.587H90.4162V119.753Z" fill="#222222"/>
<path d="M96.2495 119.753H90.4162V125.587H96.2495V119.753Z" fill="#222222"/>
<path d="M107.916 119.753H102.083V125.587H107.916V119.753Z" fill="#222222"/>
<path d="M113.75 119.753H107.916V125.587H113.75V119.753Z" fill="#222222"/>
<path d="M14.5828 125.587H8.74951V131.42H14.5828V125.587Z" fill="#222222"/>
<path d="M20.4162 125.587H14.5828V131.42H20.4162V125.587Z" fill="#222222"/>
<path d="M26.2495 125.587H20.4162V131.42H26.2495V125.587Z" fill="#222222"/>
<path d="M32.0828 125.587H26.2495V131.42H32.0828V125.587Z" fill="#222222"/>
<path d="M37.9162 125.587H32.0828V131.42H37.9162V125.587Z" fill="#222222"/>
<path d="M43.7495 125.587H37.9162V131.42H43.7495V125.587Z" fill="#222222"/>
<path d="M49.5828 125.587H43.7495V131.42H49.5828V125.587Z" fill="#222222"/>
<path d="M61.2495 125.587H55.4162V131.42H61.2495L61.2495 125.587Z" fill="#222222"/>
<path d="M78.7495 125.587H72.9162L72.9162 131.42H78.7495V125.587Z" fill="#222222"/>
<path d="M84.5828 125.587H78.7495V131.42H84.5828V125.587Z" fill="#222222"/>
<path d="M102.083 125.587H96.2495V131.42H102.083V125.587Z" fill="#222222"/>
<path d="M113.75 125.587H107.916V131.42H113.75V125.587Z" fill="#222222"/>
<path d="M131.25 125.587H125.416V131.42H131.25V125.587Z" fill="#222222"/>
</g>
</g>
</g>
<defs>
<clipPath id="clip0_1115_1217">
<rect y="0.170044" width="140" height="140" rx="11.3714" fill="white"/>
</clipPath>
</defs>
</svg>
